#!OML:ASF G:\acrobat\cartwheel_test\acrobat_wednesday\Session 1\acrobatwednesday.ASF
:FULLY-SPECIFIED
:DEGREES
540
root 34.2261 16.0631 6.60765 7.08305 15.8042 -715.105
lowerback 3.29773 1.44149 -2.38693
upperback 2.3545 1.87172 -1.75504
thorax 0.550375 0.92442 -0.513589
lowerneck -22.9585 -4.38275 -7.70006
upperneck 17.3435 -4.6432 5.31037
head 9.56349 -2.06396 2.42212
rclavicle -1.41137e-014 -1.36167e-014
rhumerus -44.3703 8.35996 -96.8648
rradius 65.426
rwrist 26.0665
rhand -27.2031 13.8589
rfingers 7.12502
rthumb -0.616228 -16.1199
lclavicle -1.41137e-014 -1.36167e-014
lhumerus -43.3413 34.3772 62.0199
lradius 8.19271
lwrist -12.1799
lhand -28.5524 -12.1579
lfingers 7.12502
lthumb -1.91943 17.8133
rfemur -18.1034 2.9032 7.0549
rtibia 19.8954
rfoot -6.43791 16.9481
rtoes -53.0235
lfemur -0.574265 -10.0284 -13.8037
ltibia 17.045
lfoot -10.9757 2.68613
ltoes -12.0341
541
root 34.1607 16.054 6.68759 6.96507 15.709 -715.397
lowerback 3.24633 1.35461 -2.23772
upperback 2.35093 1.76112 -1.70443
thorax 0.578955 0.870163 -0.540567
lowerneck -22.941 -4.21495 -7.58587
upperneck 17.4897 -4.40419 5.08236
head 9.58639 -1.97281 2.36088
rclavicle -2.55935e-015 -2.55438e-014
rhumerus -43.9504 7.07888 -95.8179
rradius 62.6845
rwrist 26.088
rhand -27.2238 13.1721
rfingers 7.12502
rthumb -0.63621 -16.8067
lclavicle -2.55935e-015 -2.55438e-014
lhumerus -43.3893 34.5212 61.9701
lradius 8.95394
lwrist -11.9482
lhand -28.5863 -12.5318
lfingers 7.12502
lthumb -1.95221 17.4391
rfemur -17.9432 3.31234 7.75074
rtibia 19.9697
rfoot -6.20553 17.0605
rtoes -52.8537
lfemur -0.844159 -9.29582 -12.9177
ltibia 17.8971
lfoot -11.774 2.98642
ltoes -12.9025
542
root 34.1007 16.0552 6.76647 6.82335 16.0534 -716.168
lowerback 3.16164 1.15517 -1.44098
upperback 2.26253 1.51383 -1.51159
thorax 0.551513 0.754228 -0.780698
lowerneck -22.9207 -4.08614 -7.60717
upperneck 17.745 -4.19608 4.93932
head 9.65574 -1.89608 2.34761
rclavicle -6.43068e-014 -2.18663e-015
rhumerus -43.5252 5.59904 -94.5957
rradius 59.7615
rwrist 26.3348
rhand -27.3066 12.8397
rfingers 7.12502
rthumb -0.716171 -17.1388
lclavicle -6.43068e-014 -2.18663e-015
lhumerus -43.316 34.5982 62.0241
lradius 9.56606
lwrist -11.5345
lhand -28.4854 -12.8457
lfingers 7.12502
lthumb -1.85467 17.126
rfemur -17.7646 3.00183 9.02169
rtibia 20.0067
rfoot -5.37797 16.986
rtoes -54.2876
lfemur -1.459 -8.98464 -11.4652
ltibia 18.9659
lfoot -12.653 3.27808
ltoes -12.7249
543
root 34.0566 16.0543 6.85321 6.50733 16.314 -716.321
lowerback 3.22372 0.950747 -1.17294
upperback 2.32767 1.24778 -1.42438
thorax 0.586325 0.623521 -0.834779
lowerneck -23.0677 -3.94645 -7.62211
upperneck 18.1353 -3.92746 4.64041
head 9.79535 -1.80845 2.287
rclavicle 2.44878e-014 3.97569e-015
rhumerus -43.0474 4.33388 -93.1208
rradius 56.7701
rwrist 26.6622
rhand -27.8224 12.1554
rfingers 7.12502
rthumb -1.21435 -17.8209
lclavicle 2.44878e-014 3.97569e-015
lhumerus -43.1786 34.8179 62.1863
lradius 10.0591
lwrist -11.0215
lhand -28.4511 -13.0781
lfingers 7.12502
lthumb -1.82155 16.8939
rfemur -17.138 2.15382 9.55133
rtibia 19.9956
rfoot -4.318 16.279
rtoes -56.4743
lfemur -1.61126 -8.59795 -10.9066
ltibia 19.967
lfoot -13.7864 3.78834
ltoes -12.9948
544
root 34.0194 16.0522 6.93582 6.17638 16.4829 -715.84
lowerback 3.43989 0.788059 -1.33253
upperback 2.51268 1.02785 -1.64053
thorax 0.655609 0.513634 -0.962979
lowerneck -23.2297 -3.81884 -7.41244
upperneck 18.4417 -3.74887 4.34981
head 9.91046 -1.74559 2.17818
rclavicle 3.63155e-014 -1.77912e-014
rhumerus -42.4179 2.71358 -91.6339
rradius 53.7315
rwrist 27.34
rhand -28.1992 10.7177
rfingers 7.12502
rthumb -1.57833 -19.2562
lclavicle 3.63155e-014 -1.77912e-014
lhumerus -41.7307 33.817 63.7392
lradius 10.1347
lwrist -9.25748
lhand -29.0578 -13.2636
lfingers 7.12502
lthumb -2.40751 16.7026
rfemur -16.2649 1.26632 9.2517
rtibia 20.0385
rfoot -3.96641 15.3937
rtoes -56.8579
lfemur -1.52341 -8.39332 -11.23
ltibia 20.9441
lfoot -14.7138 4.12447
ltoes -13.5239
545
root 33.971 16.0513 7.01148 6.07479 16.0545 -715.41
lowerback 3.4969 0.789169 -1.61047
upperback 2.57364 1.02339 -1.8559
thorax 0.68589 0.509756 -1.02854
lowerneck -23.2333 -3.65705 -7.33231
upperneck 18.6969 -3.52652 4.21566
head 9.98371 -1.65512 2.15379
rclavicle 4.37513e-014 8.44835e-016
rhumerus -41.6554 0.762075 -90.0252
rradius 50.4342
rwrist 28.5242
rhand -28.2477 9.20903
rfingers 7.12502
rthumb -1.62511 -20.7645
lclavicle 4.37513e-014 8.44835e-016
lhumerus -40.8426 34.1151 63.9759
lradius 9.96388
lwrist -9.37473
lhand -30.0975 -13.9067
lfingers 7.12502
lthumb -3.4116 16.0458
rfemur -15.9329 0.935109 8.99569
rtibia 20.295
rfoot -4.19156 14.5517
rtoes -55.5249
lfemur -1.53526 -8.06502 -11.5472
ltibia 21.8927
lfoot -15.2625 4.26912
ltoes -12.1213
546
root 33.9247 16.0607 7.09176 5.91394 15.8103 -715.357
lowerback 3.49784 0.667563 -1.63424
upperback 2.52889 0.858995 -1.78863
thorax 0.636932 0.426737 -0.941829
lowerneck -23.1028 -3.42639 -7.5068
upperneck 19.0449 -3.11794 4.0232
head 10.0595 -1.50761 2.18055
rclavicle -2.23509e-014 7.55382e-015
rhumerus -40.8816 -1.27475 -87.9487
rradius 46.7464
rwrist 30.1534
rhand -28.1285 8.22564
rfingers 7.12502
rthumb -1.51003 -21.7488
lclavicle -2.23509e-014 7.55382e-015
lhumerus -40.4408 34.655 64.1769
lradius 10.0589
lwrist -9.47714
lhand -30.542 -14.0536
lfingers 7.12502
lthumb -3.84091 15.8916
rfemur -15.4263 0.769406 9.19217
rtibia 20.1811
rfoot -4.42723 14.055
rtoes -54.1889
lfemur -1.78018 -7.56586 -11.3521
ltibia 23.0949
lfoot -16.4849 3.13426
ltoes -20.8495
547
root 33.8746 16.0757 7.17884 5.64009 15.601 -715.606
lowerback 3.49151 0.647161 -1.41354
upperback 2.50257 0.836362 -1.68401
thorax 0.614616 0.417216 -0.957533
lowerneck -23.008 -3.26993 -7.59803
upperneck 19.4108 -2.85436 3.90276
head 10.1574 -1.4125 2.19701
rclavicle 7.04443e-015 -1.49089e-015
rhumerus -40.1063 -4.02119 -85.5529
rradius 42.941
rwrist 32.0967
rhand -28.0284 7.2612
rfingers 7.12502
rthumb -1.41333 -22.7139
lclavicle 7.04443e-015 -1.49089e-015
lhumerus -39.5438 34.3624 65.0225
lradius 10.1697
lwrist -8.71691
lhand -29.982 -13.5861
lfingers 7.12502
lthumb -3.3001 16.3681
rfemur -14.7342 0.832339 9.81695
rtibia 19.7476
rfoot -4.38654 13.8039
rtoes -54.297
lfemur -2.09879 -6.73232 -10.684
ltibia 24.428
lfoot -17.8177 2.02704
ltoes -28.1615
548
root 33.8201 16.0881 7.26439 5.39142 15.357 -715.904
lowerback 3.4633 0.694237 -1.15289
upperback 2.50176 0.906098 -1.63622
thorax 0.633021 0.454759 -1.05616
lowerneck -22.8985 -3.1708 -7.65336
upperneck 19.6737 -2.72286 3.94931
head 10.2258 -1.35441 2.24638
rclavicle -2.15433e-014 -1.21756e-014
rhumerus -39.3825 -7.27008 -82.9383
rradius 39.2347
rwrist 34.3563
rhand -28.0331 6.79323
rfingers 7.12502
rthumb -1.4179 -23.1818
lclavicle -2.15433e-014 -1.21756e-014
lhumerus -38.512 34.368 65.5574
lradius 10.0204
lwrist -8.7094
lhand -29.9419 -13.5839
lfingers 7.12502
lthumb -3.26138 16.3709
rfemur -14.0449 1.09383 10.5548
rtibia 19.2163
rfoot -4.18663 13.6914
rtoes -55.0549
lfemur -2.498 -5.9927 -9.9537
ltibia 25.8327
lfoot -19.0943 1.01057
ltoes -35.0069
549
root 33.7646 16.1024 7.34603 5.26921 15.2234 -716.278
lowerback 3.32498 0.663976 -0.870094
upperback 2.45399 0.873966 -1.52263
thorax 0.663114 0.44097 -1.09571
lowerneck -22.8017 -3.0421 -7.58961
upperneck 19.9768 -2.54519 3.81439
head 10.3038 -1.28875 2.21857
rclavicle 2.05742e-014 -6.70898e-015
rhumerus -38.7664 -10.9482 -79.9577
rradius 35.4664
rwrist 37.2345
rhand -28.2663 7.01764
rfingers 7.12502
rthumb -1.64313 -22.9558
lclavicle 2.05742e-014 -6.70898e-015
lhumerus -37.3364 34.2626 66.3047
lradius 9.90218
lwrist -8.53676
lhand -30.9615 -13.6503
lfingers 7.12502
lthumb -4.24599 16.2871
rfemur -13.5108 1.54549 11.4
rtibia 18.7414
rfoot -4.00036 13.8409
rtoes -55.097
lfemur -3.21426 -5.35754 -9.14018
ltibia 27.4254
lfoot -20.4329 0.157474
ltoes -41.5319
